<?xml version="1.0" encoding="utf-8"?>
<!-- Generator: Adobe Illustrator 19.0.1, SVG Export Plug-In . SVG Version: 6.00 Build 0)  -->
<svg version="1.1" id="Livello_1" xmlns="http://www.w3.org/2000/svg" xmlns:xlink="http://www.w3.org/1999/xlink" x="0px" y="0px"
	 viewBox="-231 385.3 137 34.8" style="enable-background:new -231 385.3 137 34.8;" xml:space="preserve" width="137px" height="43px">
<style type="text/css">
	.st0{fill-rule:evenodd;clip-rule:evenodd;fill:#121212;}
	.st1{fill-rule:evenodd;clip-rule:evenodd;fill:#757575;}
</style>
<g>
	<path class="st0" d="M-179.6,397.8c0,0.6,0.3,1.4,0.5,1.9l1.6,6h-4.4c0.3-1.4,0.7-2.6,1.1-4l1-3.4c0-0.1,0-0.1,0.1-0.2
		L-179.6,397.8z M-191.8,415.2h7c0.2-0.7,0.4-1.4,0.6-2.1c0.2-0.6,0.6-1.6,0.6-2.2h7.5c0.3,0.5,0.5,1.6,0.6,2.2
		c0.2,0.6,0.4,2.1,0.8,2.1h6.7c0-0.6-4.8-15.6-5-16.3c-0.3-1.2-0.7-2.2-1-3.3l-1.8-5.7c-0.1-0.4-0.1-0.7-0.4-0.7h-7.2
		c-0.4,0-0.6,1-0.7,1.4c-0.2,0.6-0.3,1-0.5,1.6c-0.2,0.6-0.3,1-0.5,1.6c-0.2,0.7-0.3,1.1-0.5,1.7l-2.1,6.6c-0.3,1.1-0.8,2.2-1,3.3
		c-0.3,1.1-0.7,2.2-1,3.3L-191.8,415.2z"/>
	<path class="st0" d="M-157.3,400.6h-2.9v-5.8c1.7,0,4.3-0.2,5.5,0.5c0.9,0.6,0.9,1.6,0.9,2.6C-153.8,400.1-155.2,400.6-157.3,400.6
		L-157.3,400.6z M-166.7,414.9c0,0.2,0.1,0.3,0.3,0.3h6.2v-9c3.7,0,6.8,0.1,9.5-1.7c4.1-2.8,4.5-12.8-2.1-14.7
		c-1.1-0.3-2.2-0.6-3.6-0.6h-10.4V414.9z"/>
	<path class="st0" d="M-145.4,415.2h3.3v-13.8c0-2.7-0.2-5-0.2-7.6l0.2,0.3c0.1,0.1,0.1,0.2,0.2,0.4l2.7,4.9
		c0.3,0.5,0.5,0.9,0.8,1.3c2,3,4,6.4,6,9.4l2.6,4c1,1.6,0.5,1.2,4.3,1.2v-25.6h-3.3V403c0,1.4,0.1,2.6,0.1,3.9
		c0,1.3,0.2,2.5,0.2,3.8c0,0,0-0.1,0-0.1l-1.4-2.7c-0.3-0.5-0.5-0.9-0.7-1.4c-1.5-2.6-3.3-5.4-5-7.9l-5.1-7.8c-1-1.6,0-1.2-4.6-1.2
		V415.2z"/>
	<path class="st0" d="M-114.2,402.3c0,5.1,2.6,10.3,7.3,12.2c3.5,1.5,7.1,1.6,10.7,0.4c0.5-0.2,0.8-0.4,1.3-0.5c0-0.7-0.6-2-0.6-2.6
		c-1,0.1-4.8,2-9.5,0.1c-1.4-0.5-2.1-1.2-3-2.1c-0.4-0.4-0.8-0.9-1.1-1.4c-0.4-0.7-0.5-1-0.9-1.8c-1.4-3.5-0.9-8.5,1.7-11.5
		c2.6-3,7.6-3.7,11.2-2c0.4,0.2,0.8,0.5,1.2,0.6c0.1-0.3,0.8-2.6,0.8-2.9C-103.5,386.2-114.2,391.7-114.2,402.3L-114.2,402.3z"/>
	<path class="st0" d="M-229.8,401.5c0,3.3,0.5,5.8,2.4,8.6c1,1.5,2.6,3.2,2.7,3.3c0.3-0.2,0.8-0.6,1-0.8c-0.1-0.3-0.3-0.4-0.7-1
		c-2.2-3.4-1.3-7.9-0.1-11.5c0.6-1.8,1.1-3.6,1.8-5.3c1.3-3.3,3.4-6.4,7.1-7.2c0-0.4-0.2-1.2-0.3-1.5c-2,0-5.9,1.9-7.6,3.3
		c-1.2,1-1.8,1.6-2.7,2.8c-0.3,0.4-0.5,0.6-0.7,1.1C-228.5,395.4-229.8,398.7-229.8,401.5L-229.8,401.5z"/>
	<path class="st0" d="M-202.5,393c0.6,0.7,1.1,1.6,1.4,2.5c1,2.4,0.7,4.6,0.2,7.2c-0.4,1.7-2,6.6-2.6,8.2c-1,2.4-2.4,4.9-4.6,6.2
		c-1.3,0.8-1.9,0.8-2.5,1.1c0.1,0.3,0.2,0.9,0.3,1.3c0.9-0.1,2.2-0.5,2.9-0.7c0.5-0.2,0.8-0.3,1.3-0.5c3.8-1.6,6.7-4.4,8.2-8.3
		c2-5,1.8-10-1-14.6c-1.1-1.8-2.2-2.8-2.6-3.3c-0.2,0.2-0.3,0.3-0.6,0.5C-202.2,392.6-202.2,392.6-202.5,393L-202.5,393z"/>
	<path class="st0" d="M-121,415.2h3.2c0.2,0,0.3-0.1,0.3-0.3v-25.3h-3.5V415.2z"/>
	<path class="st1" d="M-211.4,397.1c0,4.1,5.5,3.7,5.5,0.2C-205.9,393.6-211.4,393.9-211.4,397.1L-211.4,397.1z"/>
	<path class="st1" d="M-219.7,408.1c0,1.6,1.2,2.9,3,2.9c1.2,0,2.5-1.3,2.5-2.5v-0.5c0-2-3-3.3-4.6-1.7
		C-219.2,406.6-219.7,407.3-219.7,408.1L-219.7,408.1z"/>
	<path class="st1" d="M-219.7,397.2c0,1.8,1.3,2.9,3,2.9c1.2,0,2.5-1.3,2.5-2.4V397c0-1.2-1.2-2.4-2.9-2.4
		C-218.4,394.5-219.7,395.8-219.7,397.2L-219.7,397.2z"/>
	<path class="st1" d="M-211.4,408c0,1.8,1.1,3,3,3c1.2,0,2.5-1.3,2.5-2.7c0-1.5-1.2-2.7-3-2.7C-210.1,405.4-211.4,406.7-211.4,408
		L-211.4,408z"/>
</g>
</svg>
