<?xml version="1.0" encoding="utf-8"?>
<!-- Generator: Adobe Illustrator 19.0.1, SVG Export Plug-In . SVG Version: 6.00 Build 0)  -->
<svg version="1.1" id="Livello_1" xmlns="http://www.w3.org/2000/svg" xmlns:xlink="http://www.w3.org/1999/xlink" x="0px" y="0px"
	 viewBox="-231 385.3 137 65.7" style="enable-background:new -231 385.3 137 65.7;" xml:space="preserve" width="110px" height="54">
<style type="text/css">
	.st0{fill-rule:evenodd;clip-rule:evenodd;fill:#7F7F7F;}
	.st1{fill-rule:evenodd;clip-rule:evenodd;}
</style>
<g>
	<path class="st0" d="M-167.4,388.1v28.5c-0.4,0-3.2-1-3.6-1.2v-26c-0.5,0-3.4,1.1-4.1,1.4l-6.8,2.4v18.4c-0.4-0.2-3.2-1.2-3.6-1.2
		v-16l-2.9,1c-0.3,0.1-0.8,0.2-0.8,0.5v16.8c0,0.4,0.6,0.4,1.2,0.7l2.7,0.9c1.2,0.4,6.4,2.3,7,2.4v-21c0.3,0,3.2-1.1,3.6-1.2v23.5
		c0.5,0.1,0.9,0.3,1.4,0.5c0.5,0.2,0.9,0.3,1.4,0.5c2.1,0.8,4.7,1.6,6.8,2.4c0.4,0.2,1,0.4,1.4,0.5v-31.1c2.3-1.1,2-0.4,3.6,0v31.1
		c0.4-0.2,0.9-0.3,1.4-0.5l5.4-1.9c1.1-0.4,3.4-1.1,4.1-1.5v-23.3c0.7,0.1,2.8,1.1,3.5,1.1v21c0.7,0,10.1-3.6,10.9-3.7v-17.4
		c-0.7-0.1-2.8-1.1-3.7-1.1v15.9l-3.6,1.2v-18.4c-0.8-0.4-1.8-0.6-2.7-1l-2.7-1c-1-0.3-1.8-0.6-2.7-0.9c-0.6-0.2-2.1-0.9-2.8-0.9
		v26.1c-0.5,0-1.3,0.4-1.7,0.5c-0.6,0.2-1.2,0.5-1.8,0.6v-28.4l-5.5-1.9C-162.4,386.3-166.6,387.9-167.4,388.1L-167.4,388.1z"/>
	<path class="st1" d="M-198.5,446c-0.7-0.4-0.8-1-1.1-1.1c-0.5-0.2-1.6-0.1-2.2-0.1c0.1,0.7,1.4,1.5,1.6,2.2
		c-1.1,0.1-3.1,1.1-5.4-1.2c-1.9-2-2-6,0.1-7.9l0.2-0.2c0.6-0.5,1.4-1,2.2-1.1c0.3,0,1-0.1,1.2-0.1c0.8,0,1.5,0.2,2.1,0.5
		c3,1.3,3.9,5.7,2,8.3C-198.1,445.5-198.4,445.8-198.5,446L-198.5,446z M-209.1,441.4c0,2.4,0.4,4,2,5.6c0.6,0.6,1.1,1,1.9,1.4
		c1.9,0.9,4.5,0.9,6.4,0c1.1,1.6,1.3,1.2,3.3,1.2c-0.5-0.8-1.3-1.4-1.8-2.2c2.5-1.3,4.3-8-0.4-11.4c-2-1.5-4.7-1.7-7-0.7
		c-1.3,0.5-2.1,1.3-2.9,2.3C-208.5,438.5-209.1,440.1-209.1,441.4L-209.1,441.4z"/>
	<path class="st1" d="M-149.5,448.4c0,0.5,0.5,0.3,1.6,0.3c0.5,0,0.3-1.4,0.3-2.4v-8.2c0.4,0.3,1.9,2.1,2.4,2.6l6,6.6
		c1.3,1.4,0.7,1.3,2.6,1.3c0.2,0,0.3-0.1,0.3-0.3v-13.2h-1.9v10.4l-7.7-8.5c-2.1-2.3-1-1.9-3.6-1.9V448.4z"/>
	<path class="st1" d="M-228.5,448.7h11.7c0.5,0,0.3-0.6,0.3-1.8h-10v-4.3h6.4v-1.8h-6.4V437h9.6v-1.8h-11.6V448.7z"/>
	<path class="st1" d="M-106.8,441.3l-2.5,2.8c-0.4,0.4-0.5,0.6-0.9,1l-1.7,1.8c-0.3,0.3-0.5,0.6-0.8,0.9c-1,1-1.1,0.8,1.6,0.8
		c0.3,0,1-0.9,1.5-1.4l4.3-4.5c0.2,0.1,0.4,0.5,0.6,0.7l4,4.6c0.7,0.9,0.2,0.7,2.9,0.7c0.7,0-0.5-0.9-1.1-1.7l-3.3-3.7
		c-0.3-0.3-0.5-0.6-0.8-0.9c-0.3-0.3-0.6-0.7-0.8-1l2.1-2.2c0.3-0.4,0.4-0.5,0.7-0.8l2.7-3.1h-2.5l-4.4,4.8l-4-4.6
		c-0.4-0.4-1.8-0.2-2.7-0.2c0.5,0.7,1.8,2,2.3,2.7c0.2,0.2,0.1,0.2,0.3,0.4L-106.8,441.3z"/>
	<path class="st1" d="M-185.2,443.3c0,1.6,0.7,3.1,1.5,4c2.6,2.8,10.1,2.5,10.1-4.1v-8h-1.9v7.5c0,2.5-1,4.1-3.4,4.4
		c-2.3,0.3-4.1-1.3-4.1-3.6v-8.3h-2V443.3z"/>
	<path class="st1" d="M-163,435.5v12.9c0,0.5,0.6,0.3,1.7,0.3c0.2,0,0.3-0.1,0.3-0.3v-13.2C-162.3,435.2-163,435-163,435.5
		L-163,435.5z"/>
	<path class="st1" d="M-124.7,435.5v12.9c0,0.5,0.6,0.3,1.7,0.3c0.2,0,0.3-0.1,0.3-0.3v-12.9c0-0.5-0.6-0.3-1.7-0.3
		C-124.6,435.2-124.7,435.2-124.7,435.5L-124.7,435.5z"/>
</g>
</svg>
