<?xml version="1.0" encoding="utf-8"?>
<!-- Generator: Adobe Illustrator 19.0.1, SVG Export Plug-In . SVG Version: 6.00 Build 0)  -->
<svg version="1.1" id="Livello_1" xmlns="http://www.w3.org/2000/svg" xmlns:xlink="http://www.w3.org/1999/xlink" x="0px" y="0px"
	 viewBox="-231 385.3 95.7 65.7" style="enable-background:new -231 385.3 95.7 65.7;" xml:space="preserve" width="84px" height="55px">
<style type="text/css">
	.st0{fill-rule:evenodd;clip-rule:evenodd;fill:#6D6D6D;}
</style>
<g>
	<path class="st0" d="M-228.9,424.2c0,3.7,0.5,6.7,2.1,9.9c0.5,1,1.4,2.5,2.1,3.3l1.5,1.6c0,0,0,0,0,0.1c0,0,0,0,0,0.1l1.1,1
		c0.3,0.2,0.6,0.5,1,0.8c0.4,0.3,0.7,0.5,1.1,0.8c1.4,1.1,4.3,2.4,5.9,3.1c0.5,0.2,0.9,0.4,1.3,0.5c3,1.1,8.6,2.3,12,2.5
		c3.2,0.2,4.3,0.4,7.7,0.4c2.8,0,8.8-0.5,11.5-0.9c3.7-0.5,7.1-1.1,10.4-2c3.7-0.9,10.3-2.9,13.9-4.6c0.3-0.2,0.7-0.3,1-0.5
		c0.8-0.4,2.5-1.2,3.1-1.6v-6.9c-0.4,0.1-0.7,0.3-1,0.5c-0.4,0.2-0.7,0.4-1.1,0.6c-1.4,0.8-2.9,1.4-4.4,2.1
		c-1.6,0.7-5.4,2.1-7.1,2.6c-9.4,2.9-18,4.4-28.1,4.4c-5.1,0-11.8-0.6-16.3-2.1c-2.5-0.8-5.2-1.8-7.3-3.4c-1.6-1.2-2.7-2.1-4-3.8
		c-3-4.1-3.6-9.9-2.2-14.8c1.1-3.8,2.7-7,5.3-9.9c0.5-0.6,0.3-1.7,0.3-2.8c-0.5,0.1-3.2,3-3.6,3.5c-2.1,2.6-2.6,3.2-4.3,6.5
		c-0.4,0.8-0.7,1.7-1,2.6C-228.4,419.6-228.9,422-228.9,424.2L-228.9,424.2z M-215.7,403v4c0,0.2,0.1,0.3,0.3,0.3h4.5v-4.6h-4.5
		C-215.6,402.7-215.7,402.7-215.7,403L-215.7,403z M-215.7,423.3c0,1.5,0.4,2.8,1.2,3.7c0.8,0.9,2.2,1.5,3.7,1.5v-18.7h-4.8V423.3z
		 M-159.4,423.5c0,2.4,1.6,4.1,4,4.6c0.4,0.1,0.8,0.3,0.8-0.1v-25.8h-4.8V423.5z M-188,423.5c0,2.6,2.3,4.8,4.9,4.8h3.3v-3.9
		c-1.6,0-3.5,0.3-3.5-1.5v-9.3h3.5v-3.8h-3.5v-5h-4.7V423.5z M-206.7,428.1c0,0.2,0.1,0.3,0.3,0.3h4.4v-14.8c6.7,0,5.8-0.7,5.8,6.5
		l0,7.6c0,0.4-0.1,0.8,0.3,0.8h4.2c0.2,0,0.3-0.1,0.3-0.3v-11.9c0-4-1.7-6.5-5.6-6.5h-9.7V428.1z M-173.9,416.9c0-3.7,5.4-5,6.7-1.4
		c0.3,0.7,0.3,1.1,0.3,1.8h-7.1V416.9z M-178.7,419.1c0,1,0.2,2.4,0.4,3.2c0.7,2.7,2.3,4.9,5,5.9c3.3,1.1,7,0.7,9.8-1.6
		c0.3-0.3,0.8-0.5,0.9-1c-0.4-0.1-1.1-1-1.4-1.3l-1.5-1.3c-0.9,0.6-1.5,1.8-4.2,1.8c-4.2,0-4.1-3.9-4.2-4.1h12
		c0-3.2-0.2-5.8-1.9-8.1C-168.1,406.9-178.7,409-178.7,419.1L-178.7,419.1z M-209.1,398.8c0.2,0.7,0.2,1.1,0,1.8
		c0.5-0.1,1.5-0.7,2-1l2-0.9c1.4-0.6,2.8-1.2,4.2-1.8l4.3-1.5c1.5-0.5,3-1,4.6-1.3c5.3-1.3,7.1-1.6,12.4-2.4
		c4.8-0.7,11.8-0.7,16.5,0c5.6,0.8,12.1,2.7,16.2,6.8c4.1,4.1,5.5,10,3.5,15.4c-0.7,1.7-2,4.1-3.3,5.4c-0.3,0.3-0.4,0.5-0.7,0.8
		l-2.4,2c-0.6,0.4-1.2,0.8-1.8,1.2v5c1.3-0.1,5.1-2.7,6.3-3.7c0.2-0.2,0.3-0.3,0.5-0.5c0.3-0.2,0.3-0.2,0.6-0.5
		c3.5-3.5,6.3-8.7,6.3-14c0-3.4-0.5-6-2-8.9c-0.3-0.7-0.8-1.5-1.3-2c-1.9-2.5-3.4-3.7-6-5.4c-1-0.6-2.2-1.2-3.2-1.7
		c-1.4-0.7-3.3-1.3-4.8-1.7c-1.9-0.6-3.4-0.8-5.4-1.2c-0.9-0.2-2-0.3-3-0.4c-6.2-0.4-5.7-0.6-12.6-0.1c-7.9,0.6-17.6,3.1-24.9,6.3
		c-2.2,1-5.2,2.4-7.3,3.7C-208.4,398.5-208.8,398.7-209.1,398.8L-209.1,398.8z"/>
</g>
</svg>
