<?xml version="1.0" encoding="utf-8"?>
<!-- Generator: Adobe Illustrator 19.0.1, SVG Export Plug-In . SVG Version: 6.00 Build 0)  -->
<svg version="1.1" id="形状_1_1_" xmlns="http://www.w3.org/2000/svg" xmlns:xlink="http://www.w3.org/1999/xlink" x="0px"
	 y="0px" viewBox="-30 335.1 490 167.3" style="enable-background:new -30 335.1 490 167.3;" xml:space="preserve" width="184px" height="54px">
<style type="text/css">
	.st0{fill:#231F20;}
	.st1{fill:#FFFFFF;}
	.st2{fill:#8D9092;}
</style>
<rect x="-19.7" y="347.6" class="st0" width="235.6" height="143.1"/>
<rect x="215.7" y="347.6" class="st1" width="235.6" height="143.1"/>
<g>
	<g>
		<path class="st1" d="M15,453.8h-4.9v-51.7c4.1-1.3,8.2-1.9,12.2-1.9c2.9,0,5.5,0.5,7.9,1.4c2.4,0.9,4.4,2.2,6.1,3.8
			c1.7,1.6,3,3.5,3.9,5.8c0.9,2.2,1.4,4.6,1.4,7.3c0,3.2-0.5,5.9-1.6,8.2c-1.1,2.3-2.5,4.2-4.3,5.6c-1.8,1.5-3.8,2.6-6.1,3.2
			c-2.3,0.7-4.6,1-7,1c-1.3,0-2.5-0.1-3.8-0.3c-1.2-0.2-2.5-0.5-3.7-0.8V453.8z M35.8,418.3c0-4.1-1.2-7.5-3.5-10
			c-2.3-2.5-5.5-3.8-9.7-3.8c-1.3,0-2.6,0.1-3.9,0.2c-1.3,0.2-2.5,0.5-3.8,0.9v25.2c1.1,0.4,2.3,0.7,3.5,1c1.2,0.3,2.4,0.4,3.5,0.4
			c4.2,0,7.6-1.2,10.1-3.6C34.6,426.2,35.8,422.8,35.8,418.3z"/>
		<path class="st1" d="M51.4,436.2v-49.8h5v49.8H51.4z"/>
		<path class="st1" d="M97.1,431c-1.7,1.8-3.6,3.2-5.8,4.1c-2.2,0.9-4.8,1.4-7.9,1.4c-2.8,0-5.3-0.5-7.5-1.5c-2.1-1-3.9-2.3-5.3-3.9
			c-1.4-1.7-2.5-3.6-3.2-5.7c-0.7-2.1-1.1-4.4-1.1-6.8c0-3.1,0.4-5.8,1.3-8.1c0.9-2.3,2-4.2,3.5-5.7c1.5-1.5,3.2-2.6,5.1-3.4
			c1.9-0.7,4-1.1,6.2-1.1c5.2,0,9.2,1.6,11.8,4.8c2.7,3.2,3.9,7.9,3.8,14H71.4c0.1,4,1.3,7.2,3.5,9.6c2.2,2.4,5.1,3.6,8.9,3.6
			c2.1,0,4-0.3,5.7-1c1.7-0.7,3.2-1.8,4.6-3.3L97.1,431z M93.1,414.8c0-1.5-0.2-2.8-0.7-4.1c-0.5-1.3-1.1-2.4-1.9-3.3
			c-0.8-0.9-1.9-1.6-3.2-2.2c-1.3-0.5-2.9-0.8-4.6-0.8c-1.8,0-3.4,0.3-4.7,0.8c-1.3,0.5-2.3,1.2-3.1,2.1c-0.8,0.9-1.5,1.9-2.1,3.2
			c-0.6,1.3-1.1,2.7-1.2,4.2H93.1z"/>
		<path class="st1" d="M130.7,409c-1.2-1.6-2.6-2.7-4-3.5c-1.4-0.7-3.2-1.1-5.1-1.1c-2.5,0-4.3,0.5-5.3,1.4c-1,0.9-1.5,2-1.5,3.4
			c0,1,0.2,1.8,0.7,2.4c0.5,0.7,1.1,1.2,1.9,1.7c0.8,0.5,1.7,0.9,2.7,1.2c1,0.4,2.1,0.7,3.2,1c1.3,0.4,2.7,0.9,4,1.4
			c1.3,0.5,2.6,1.2,3.7,2c1.1,0.8,2,1.8,2.7,3c0.7,1.2,1,2.6,1,4.4c0,1.6-0.3,3.1-1,4.3c-0.7,1.3-1.6,2.4-2.8,3.2
			c-1.2,0.9-2.6,1.5-4.2,2c-1.6,0.5-3.3,0.7-5.2,0.7c-2.8,0-5.3-0.5-7.5-1.4c-2.2-0.9-4.2-2.5-6.2-4.6l3.9-3.4c2.6,3.3,5.9,5,10.1,5
			c2.7,0,4.7-0.5,6-1.5c1.3-1,1.9-2.2,1.9-3.6c0-1.1-0.2-2-0.7-2.7c-0.5-0.7-1.1-1.4-1.9-1.9c-0.8-0.5-1.8-1-2.8-1.3
			c-1.1-0.4-2.2-0.7-3.4-1c-1.3-0.4-2.7-0.8-4-1.3c-1.3-0.5-2.5-1.1-3.5-1.8c-1-0.7-1.9-1.7-2.6-2.8c-0.7-1.1-1-2.6-1-4.3
			c0-3.1,1.1-5.6,3.4-7.3c2.3-1.7,5.2-2.6,8.9-2.6c2.6,0,4.9,0.4,6.9,1.3c2,0.9,3.9,2.3,5.8,4.5L130.7,409L130.7,409z"/>
		<path class="st1" d="M143.9,436.2v-49.7h5v49.7H143.9z M148.9,417.8l17.1-17.2h6.7l-17.5,17.1l17.4,18.5h-6.9L148.9,417.8z"/>
	</g>
</g>
<g>
	<path class="st2" d="M68.7,453.8h-30v-4.7h30V453.8z"/>
</g>
<g>
	<path class="st2" d="M213.4,490.7V347.6h4.7v143.1H213.4z"/>
</g>
<g>
	<g>
		<path class="st2" d="M294.9,434.7c-8.4,0-15.9-6.8-15.9-15.4c0-8.7,7.4-15.4,15.9-15.4c4.6,0,9.1,2,12.1,5.5
			c0.8,0.8,1.5,1.9,1.9,3h-3.5c-2.1-3.6-6.5-5.7-10.6-5.7c-7,0-13,5.6-13,12.7c0,7.2,6,12.6,13.1,12.6c5.2,0,10.7-3.6,12-8.8h-16.6
			v-2.7h20.1C310,428.7,303,434.7,294.9,434.7z"/>
		<path class="st2" d="M329.5,434.7c-8.3,0-15.7-6.7-15.7-15.2c0-8.7,7.1-15.5,15.7-15.5c8.5,0,15.7,6.8,15.7,15.4
			C345.2,427.9,337.9,434.7,329.5,434.7z M329.5,406.7c-7.1,0-12.7,5.8-12.7,12.8c0,6.9,5.9,12.5,12.7,12.5
			c6.9,0,12.8-5.7,12.8-12.6C342.2,412.4,336.5,406.7,329.5,406.7z"/>
		<path class="st2" d="M349.9,434.2v-29.7h3v27h12.3v2.7H349.9z"/>
		<path class="st2" d="M386.4,431.7c-2.7,1.7-6.5,2.4-9.7,2.4H368v-29.7h8.7c3.2,0,7,0.7,9.7,2.4c4.2,2.7,6.7,7.5,6.7,12.5
			C393.1,424.4,390.5,429.1,386.4,431.7z M385.1,409.5c-2.9-2-6.3-2.3-9.8-2.3H371v24.3h4.9c3.5,0,6.6-0.3,9.6-2.4
			c3-2.2,4.7-6.1,4.7-9.8C390.1,415.4,388.3,411.7,385.1,409.5z"/>
	</g>
</g>
</svg>
