<?xml version="1.0" encoding="utf-8"?>
<!-- Generator: Adobe Illustrator 19.0.1, SVG Export Plug-In . SVG Version: 6.00 Build 0)  -->
<svg version="1.1" id="Livello_1" xmlns="http://www.w3.org/2000/svg" xmlns:xlink="http://www.w3.org/1999/xlink" x="0px" y="0px"
	 viewBox="-265 405.9 121.5 35.2" style="enable-background:new -265 405.9 121.5 35.2;" xml:space="preserve" width="119px" height="40px">
<style type="text/css">
	.st0{fill-rule:evenodd;clip-rule:evenodd;fill:#1A1A1A;}
	.st1{fill-rule:evenodd;clip-rule:evenodd;fill:#787878;}
</style>
<g>
	<path class="st0" d="M-252.6,439h2.5c0.2,0,0.2-0.1,0.2-0.2l1-2.3c0.1-0.2,0.2-0.4,0.3-0.6c0.4-1.1,1-2.3,1.5-3.3l0.9-2
		c0.1-0.2,0.2-0.4,0.3-0.7c0.1-0.2,0.2-0.4,0.3-0.6c0.8-1.7,1.6-3.6,2.4-5.3c0.6-1.2,1.2-2.8,1.8-4c0.1-0.2,0.2-0.5,0.3-0.7
		c0.1-0.3,0.2-0.4,0.3-0.6c0.1-0.2,0.3-0.5,0.3-0.7h-3.3c-0.1,0.3-1.7,3.9-1.9,4.3c-0.7,1.7-1.7,3.7-2.4,5.3
		c-0.1,0.2-0.2,0.3-0.2,0.5l-2.6,5.9c-0.2,0.4-0.3,0.7-0.4,1.1h-0.1c-0.2-0.7-3.3-7.4-3.7-8.6l-2.9-6.4c-0.2-0.3-0.3-0.7-0.5-1.1
		l-0.5-1.1h-3.3c0.1,0.4,1.2,2.7,1.5,3.3l2.1,4.7c0.1,0.2,0.2,0.4,0.3,0.6l1.5,3.3c0.1,0.2,0.2,0.4,0.3,0.6l2.1,4.7
		c0.2,0.5,0.4,0.9,0.6,1.3l1,2.3C-252.7,438.9-252.7,439-252.6,439L-252.6,439z"/>
	<path class="st0" d="M-197.8,431.4c0-2.3,1.1-4.1,3-5.2c1.6-0.9,3.9-0.7,5.4,0.5c0.1,0.1,0.2,0.2,0.3,0.3c0.2,0.1,0.2,0.2,0.4,0.4
		c0.2,0.3,0.4,0.4,0.6,0.7c1.1,1.7,1.3,4,0.4,5.8c-0.7,1.5-2,2.7-3.7,3.1c-1.5,0.4-3,0-4.2-0.9c-0.1-0.1-0.2-0.2-0.4-0.3
		c-0.1-0.1-0.2-0.2-0.3-0.4c-0.5-0.6-0.7-0.8-1.1-1.7C-197.6,433.1-197.8,432.3-197.8,431.4L-197.8,431.4z M-192.8,439.8
		c1.6,0,2.7-0.1,4-0.8c0.6-0.3,1.4-0.7,1.8-1.2c0.4-0.4,0.6-0.5,1-1c4.4-5.6,0.7-13.8-6.5-13.8c-3.5,0-6.1,2-7.5,4.9
		c-0.5,1.1-0.7,2-0.8,3.4c0,0.3,0.1,1.5,0.2,1.9c0.1,0.6,0.3,1.1,0.5,1.6c0.2,0.5,0.4,0.9,0.7,1.3c0.3,0.5,0.5,0.8,0.9,1.2
		c0.7,0.7,0.9,0.9,1.7,1.4C-195.7,439.2-194.3,439.8-192.8,439.8L-192.8,439.8z"/>
	<path class="st0" d="M-159.1,431.4c0-1.5,0.6-2.9,1.4-3.9c0.7-0.8,2.2-1.8,3.6-1.8c1.4,0,2.4,0.3,3.5,1.1c3.6,2.9,2.4,9.1-2,10.2
		c-1.2,0.3-2.5,0.1-3.4-0.4C-157.9,435.6-159.1,433.5-159.1,431.4L-159.1,431.4z M-162.1,431c0,1.9,0.2,3.1,1.1,4.7
		c0.5,1,1.5,2,2.4,2.6l1.2,0.7c1.6,0.7,2.1,0.8,3.9,0.8c2.1,0,4.2-1,5.6-2.4c0.7-0.7,1.2-1.5,1.7-2.4c0.8-1.6,1-4,0.5-5.8
		c-0.3-1.2-0.9-2.4-1.7-3.4l-0.5-0.6c-0.1-0.1-0.1-0.1-0.3-0.2c-0.8-0.7-0.4-0.5-1.5-1.1c-2.6-1.6-6.4-1.3-8.8,0.3
		c-1.2,0.8-2.2,2-2.8,3.3C-161.7,428.5-162.1,429.8-162.1,431L-162.1,431z"/>
	<path class="st0" d="M-215.4,432.6c0,2.1,0.3,3.5,1.5,5.1c0.8,1.1,2.6,2.1,4.5,2.1c1.9,0,3.7-0.3,5-1.7c0.1-0.1,0.1-0.1,0.2-0.2
		c1-1,1.6-2.9,1.6-4.8v-9.3h-2.9v8.2c0,2.4-0.6,5.1-3.5,5.1c-2.3,0-3.4-1.9-3.4-4v-9.4h-3V432.6z"/>
	<path class="st0" d="M-224.2,421.1c0,0.9,0.1,1.7,0.1,2.6h-2.5v2.3c0,0.1,0,0.2,0.2,0.2h2.3v8.2c0,1.4,0.5,2.6,1.4,3.4
		c1.3,1.3,2.9,1.2,4.8,1.2v-2.6c-1.1,0-2.1-0.1-2.7-1.1c-0.4-0.7-0.5-1.8-0.5-2.8v-6.4h4v-2.5h-4v-5.8h-2.9V421.1z"/>
	<path class="st0" d="M-183.4,426c0,0.2,0.2,0.2,0.5,0.2l4.9,0c-0.1,0.2-0.2,0.5-0.4,0.8l-1.8,4c-0.2,0.6-0.5,1.1-0.7,1.6
		c-0.6,1.5-1.6,3.4-2.1,4.8l-0.7,1.6h10.4v-2.4h-6.2c0-0.2,1.2-2.9,1.4-3.2c0.3-0.6,0.5-1,0.7-1.6c0.1-0.2,0.1-0.3,0.2-0.4
		c0.1-0.1,0.1-0.3,0.2-0.4l3.3-7.2h-9.6V426z"/>
	<path class="st0" d="M-172.1,426.2h5.3l-1.4,3.2c-0.2,0.5-0.5,1.1-0.7,1.6c-0.9,1.9-1.9,4.5-2.9,6.4l-0.7,1.6h10.4v-2.4h-6.2
		c0-0.3,1-2.4,1.2-2.8l4.5-10.1h-9.6V426.2z"/>
	<path class="st0" d="M-232.3,426l-0.2-2.2l-2.3,0V439h2.9v-8.8c0-1.6,0.9-3,2.3-3.6c0.4-0.2,1.2-0.3,1.7-0.3v-2.5
		c-1.2,0-1.9,0-2.9,0.7c-0.7,0.5-0.8,0.7-1.2,1.3C-232.2,425.9-232.1,425.9-232.3,426L-232.3,426z"/>
	<rect x="-240.9" y="423.7" class="st0" width="3" height="15.3"/>
	<path class="st1" d="M-254.1,418.3h2.6c-0.4,0.8-1.1,2.2-1.5,2.9c-0.2,0.4-1.4,2.6-1.5,2.9h6.1v-1.9h-2.7c0.4-0.8,1.1-2.2,1.5-2.9
		c0.2-0.4,1.4-2.6,1.5-2.9h-6V418.3z"/>
	<path class="st0" d="M-235.3,413.9h0.8c0-0.3,0.9-3.2,1.1-3.8c0.1-0.3,0.3-1,0.3-1.3h0.1c0,0.4,0.9,3.2,1.1,3.8
		c0.1,0.4,0.3,0.8,0.4,1.3h0.8l1.6-6.2h-0.8c-0.1,0.3-0.5,2-0.6,2.5c-0.1,0.6-0.6,2.1-0.6,2.6c-0.2-0.1-0.1,0-0.2-0.6
		c-0.1-0.3-0.1-0.4-0.2-0.6c-0.1-0.5-0.3-0.8-0.4-1.3l-0.8-2.5h-0.8c-0.1,0.4-0.2,0.8-0.4,1.2l-0.7,2.5c-0.1,0.4-0.3,0.9-0.3,1.3
		l-0.1-0.6c-0.1-0.2-0.1-0.4-0.2-0.7c-0.1-0.4-0.2-0.8-0.3-1.3l-0.5-1.9c0-0.2-0.1-0.5-0.2-0.6h-0.8c0,0.3,0.7,2.6,0.8,3.1
		L-235.3,413.9z"/>
	<path class="st0" d="M-161.4,413.3h-1.1v-2.4c1,0,2.7-0.2,2.7,1.1C-159.7,412.9-160.2,413.3-161.4,413.3L-161.4,413.3z
		 M-161.5,410.3h-1v-2c1.2,0,2.6-0.2,2.6,1.1C-159.9,410.2-160.7,410.3-161.5,410.3L-161.5,410.3z M-163.2,413.9h2.4
		c2.5,0,2.5-3.2,0.5-3.3c0.2-0.1,0.6-0.1,0.9-0.6c0.4-0.5,0.6-2.3-1.7-2.3h-2.2V413.9z"/>
	<path class="st0" d="M-184.3,413.2h-0.6v-4.9c1.7,0,3.5,0,3.4,2.5c0,0.9-0.2,1.4-0.7,1.8C-182.7,413-183.4,413.2-184.3,413.2
		L-184.3,413.2z M-185.7,413.9h2c1.7,0,2.9-1.2,2.9-2.9c0-1-0.1-1.7-0.8-2.4c-0.3-0.3-0.4-0.4-0.8-0.6c-0.8-0.4-2.4-0.3-3.4-0.3
		V413.9z"/>
	<path class="st0" d="M-247.3,408.2c1,0,1.7,0.5,1.9,1.5c0.3,1.1,0.2,2.8-0.9,3.3c-0.6,0.3-1.3,0.3-1.9,0.1
		c-0.9-0.3-1.1-1.3-1.2-2.3c0-0.5,0.2-1.4,0.5-1.8C-248.6,408.5-247.9,408.2-247.3,408.2L-247.3,408.2z M-250.2,410.5v0.6
		c0,1.6,1,2.9,2.6,2.9c1,0,1.8-0.1,2.5-0.9c0.7-0.9,0.7-1.9,0.6-2.9c-0.1-1.2-1.1-2.5-2.6-2.5h-0.5
		C-249.1,407.6-250.2,408.9-250.2,410.5L-250.2,410.5z"/>
	<path class="st0" d="M-208,410.6h-0.8v-2.3c0.5,0,1.4,0,1.8,0.1c0.9,0.3,0.8,1.7,0.1,2C-207.2,410.6-207.7,410.6-208,410.6
		L-208,410.6z M-209.6,413.9h0.8v-2.6h1.3c0,0.2,1.3,2.3,1.5,2.6h0.9c-0.5-1-1.1-1.8-1.6-2.8c0.6-0.3,1.2-0.7,1.2-1.6
		c0-2.1-2.2-1.8-4-1.8V413.9z"/>
	<polygon class="st0" points="-221.3,413.9 -217.8,413.9 -217.8,413.2 -220.6,413.2 -220.6,410.9 -218,410.9 -218,410.3 
		-220.6,410.3 -220.6,408.3 -217.8,408.3 -217.8,407.7 -221.3,407.7 	"/>
	<polygon class="st0" points="-197.3,413.9 -193.8,413.9 -193.8,413.2 -196.6,413.2 -196.6,410.9 -194,410.9 -194,410.3 
		-196.6,410.3 -196.6,408.3 -193.8,408.3 -193.8,407.7 -197.3,407.7 	"/>
	<path class="st0" d="M-260.8,410.8h-0.4v-2.5c0.9,0,2.4-0.1,2.4,1.1C-258.9,410.5-259.2,410.8-260.8,410.8L-260.8,410.8z
		 M-262,413.9h0.8v-2.5c0.9,0,1.9,0.1,2.6-0.5c0.8-0.7,0.8-2,0.1-2.7c-0.7-0.7-2.3-0.5-3.4-0.5V413.9z"/>
	<path class="st0" d="M-149.5,411.6v2.2h0.8v-2.3c0-0.3,1.5-2.9,1.8-3.4c0.1-0.2,0.2-0.3,0.3-0.5h-0.8l-1.2,2.3
		c-0.1,0.2-0.3,0.6-0.4,0.8c-0.1-0.1-1.1-2-1.2-2.3c-0.1-0.3-0.3-0.5-0.4-0.8h-0.8c0,0.2,0.4,0.8,0.5,1l1.1,2
		C-149.9,410.8-149.5,411.4-149.5,411.6L-149.5,411.6z"/>
</g>
</svg>
